# xmcd
#
# Track frame offsets:
#	150
#	13035
#	53307
#	58844
#	65814
#	77327
#	84300
#	94423
#	104968
#	112517
#	120299
#	131933
#	141399
#	154384
#
# Disc length: 2311 seconds
#
# Revision: 0
# Processed by: cddbd v1.4PL0 Copyright (c) Steve Scherf et al.
# Submitted via: dBpowerAMP V4.0
#
DISCID=bc09050e
DTITLE=Przemys³aw Gintrowski - Raport z oblê¿onego miasta
DYEAR=1999
DGENRE=Ballad
TTITLE0=Prolog
TTITLE1=Raport z oblezonego miasta
TTITLE2=Bedziemy oddychac cicho
TTITLE3=Przebudzenie
TTITLE4=Karzel
TTITLE5=xxx (smutno powiewa)
TTITLE6=Na skrzyzowaniach
TTITLE7=Tajne spotkanie z M.
TTITLE8=Winda
TTITLE9=Gornicy
TTITLE10=ZOMO.Spokoj.Bies
TTITLE11=Gdy tak siedzimy
TTITLE12=Wrozba
TTITLE13=Odpowiedz
EXTD=
EXTT0=
EXTT1=
EXTT2=
EXTT3=
EXTT4=
EXTT5=
EXTT6=
EXTT7=
EXTT8=
EXTT9=
EXTT10=
EXTT11=
EXTT12=
EXTT13=
PLAYORDER=
